# xmcd CD database file
#
# Track frame offsets:
#	207
#	29030
#	56137
#	128850
#	150477
#	203467
#
# Disc length: 3106 seconds
#
# Revision: 2
# Processed by: cddbd v1.5.2PL0 Copyright (c) Steve Scherf et al.
# Submitted via: CDex 2.00
#
DISCID=4c0c2006
DTITLE=Bobby Wellins - Bird of Brazil
DYEAR=1989
DGENRE=Jazz
TTITLE0=Birds of Brazil 1st Mvt
TTITLE1=Birds of Brazil 2nd Mvt
TTITLE2=Birds of Brazil 3rd Mvt
TTITLE3=Angel Eyes
TTITLE4=Moonray
TTITLE5=In Walked Bud
EXTD=YEAR: 1989
EXTT0=
EXTT1=
EXTT2=
EXTT3=
EXTT4=
EXTT5=
PLAYORDER=
